<?xml version="1.0" encoding="UTF-8"?>
<svg width="200" height="200" viewBox="0 0 200 200" xmlns="http://www.w3.org/2000/svg">
    <defs>
        <filter id="glow" x="-20%" y="-20%" width="140%" height="140%">
            <feGaussianBlur stdDeviation="2" result="blur" />
            <feComposite in="SourceGraphic" in2="blur" operator="over" />
        </filter>
        <linearGradient id="grad" x1="0%" y1="0%" x2="100%" y2="100%">
            <stop offset="0%" style="stop-color:#FFD700;stop-opacity:1" />
            <stop offset="100%" style="stop-color:#FFA500;stop-opacity:1" />
        </linearGradient>
    </defs>

    <g transform="translate(100,100)">
        <!-- Main symbol -->
        <path d="M0,-60 L20,-20 L60,0 L20,20 L0,60 L-20,20 L-60,0 L-20,-20 Z" 
              fill="url(#grad)" 
              filter="url(#glow)"
              stroke="#FFD700"
              stroke-width="2"/>
        
        <!-- Inner light rays -->
        <circle cx="0" cy="0" r="15" fill="#FFD700" opacity="0.8"/>
        <g transform="rotate(0)">
            <rect x="-1" y="-30" width="2" height="15" fill="#FFD700"/>
            <rect x="-1" y="15" width="2" height="15" fill="#FFD700"/>
            <rect x="-30" y="-1" width="15" height="2" fill="#FFD700"/>
            <rect x="15" y="-1" width="15" height="2" fill="#FFD700"/>
        </g>
        <g transform="rotate(45)">
            <rect x="-1" y="-30" width="2" height="15" fill="#FFD700"/>
            <rect x="-1" y="15" width="2" height="15" fill="#FFD700"/>
            <rect x="-30" y="-1" width="15" height="2" fill="#FFD700"/>
            <rect x="15" y="-1" width="15" height="2" fill="#FFD700"/>
        </g>
    </g>
</svg> 